<svg xmlns="http://www.w3.org/2000/svg" viewBox="0 0 1224.94 172.74"><defs><style>.cls-1{fill:none;stroke-width:4.6px;}.cls-1,.cls-2{stroke:#fff;stroke-miterlimit:10;}.cls-2,.cls-3{fill:#fff;}</style></defs><title>hyperscale-logo-white</title><g id="Calque_2" data-name="Calque 2"><g id="hyperscale-logo"><g id="hyperscale-logo-white"><g id="hyperscale-pictogram-color"><polygon class="cls-1" points="147.3 128.23 147.3 44.51 74.8 2.66 2.3 44.51 2.3 128.23 74.8 170.09 147.3 128.23"/><path class="cls-2" d="M71.22,117.67V85.94H30.35v31.73H28v-64h2.37V83.57H71.22V53.69h2.37v64Z"/><path class="cls-2" d="M119.25,106a10,10,0,0,0-2.86-6.5q-2.86-3.3-11.65-5.23-8-1.71-12-4.46t-4.06-8.59a10.67,10.67,0,0,1,4.24-8.48q4.24-3.52,11.67-3.52,8,0,12.48,3.76a12.16,12.16,0,0,1,4.53,9.82h-2.42A10.26,10.26,0,0,0,115.41,75q-3.76-3.38-10.83-3.38T94.2,74.72Q91,77.81,91,81.15a8.76,8.76,0,0,0,2.57,6.31q2.57,2.66,11.84,4.77,8.48,1.93,12.33,5.08a10.69,10.69,0,0,1,3.85,8.77,10.88,10.88,0,0,1-4.5,9q-4.51,3.49-12.19,3.49-8.66,0-13.23-3.87a11.6,11.6,0,0,1-4.57-9.1H89.5q.44,6.11,5.34,8.35a24,24,0,0,0,10.09,2.24q7,0,10.68-3.21T119.25,106Z"/></g><path class="cls-3" d="M297,146.8V86.87H219.8V146.8h-4.48V25.94h4.48V82.39H297V25.94h4.48V146.8Z"/><path class="cls-3" d="M324.47,25.94l41.84,70.89,42.33-70.89h5.48l-45.57,75v45.9h-4.48V100.9l-45.57-75Z"/><path class="cls-3" d="M471.64,95.75H438.36v51h-4.48V25.94h37.77q19.34,0,29.18,9.67t9.84,25.61q0,16-9.84,25.28T471.64,95.75ZM438.36,30.42V91.27h33.29q18.34,0,26.44-8.76a30,30,0,0,0,8.09-21.13,31.72,31.72,0,0,0-8.09-21.91q-8.09-9-26.44-9Z"/><path class="cls-3" d="M536,146.8V25.94h73.54v4.48H540.46v52h60.6v4.48h-60.6v55.45h69.06v4.48Z"/><path class="cls-3" d="M710.87,146.8,678.75,95.09H636.83V146.8h-4.48V25.94h38.52q17.35,0,28.51,9t11.17,25.86a32.26,32.26,0,0,1-7.93,22,32.85,32.85,0,0,1-19.3,11.17l32.29,51.71v1.16Zm-74-116.38V90.6h38.1q15.52,0,23.33-9.25a31.12,31.12,0,0,0,7.8-20.54q0-14.28-9.59-22.33t-25.61-8.05Z"/><path class="cls-3" d="M816.37,117.83q0-11.46-8.38-18.22T779.1,87.2q-18.51-5.06-29.18-11.91T739.26,53.83q0-13.78,11.5-21.67t28.6-7.89q17.6,0,28.93,9.84T819.61,60h-4.48a28.84,28.84,0,0,0-9.84-22.29q-9.83-8.92-25.94-8.92-17.1,0-26.36,7.55t-9.25,17.35a22,22,0,0,0,7.47,16.6q7.47,7,29.14,12.62Q798.2,87.53,809.57,95t11.37,22.7q0,14.86-12,22.83t-29,8a66.6,66.6,0,0,1-20.63-3.32A37.76,37.76,0,0,1,742.21,134q-6.85-7.8-6.85-21.33h4.48q0,12,6.39,18.88a34.58,34.58,0,0,0,15.69,9.63,62.68,62.68,0,0,0,18,2.78q15.94,0,26.19-7.26T816.37,117.83Z"/><path class="cls-3" d="M922.21,109.78h4.48q-1.83,19.59-13.36,29.14t-29.72,9.55q-19.92,0-31.83-14.69T839.87,95.42V77.32q0-23.66,11.91-38.35t31.83-14.69q18.18,0,29.72,9.59T926.69,62.8h-4.48q-3.82-34-38.6-34Q866,28.76,855.18,42T844.35,77.16V95.42q0,22,10.83,35.28T883.61,144q16.85,0,26.81-8.22T922.21,109.78Z"/><path class="cls-3" d="M945.29,146.8,989.61,25.94H995l44.41,120.86h-4.9l-42.17-115-42.17,115Z"/><path class="cls-3" d="M1130.23,142.32v4.48h-66.57V25.94h4.57V142.32Z"/><path class="cls-3" d="M1151.39,146.8V25.94h73.54v4.48h-69.06v52h60.6v4.48h-60.6v55.45h69.06v4.48Z"/></g></g></g></svg>