<svg xmlns="http://www.w3.org/2000/svg" xmlns:xlink="http://www.w3.org/1999/xlink" viewBox="0 0 149.6 172.74"><defs><style>.cls-1{fill:none;stroke-width:4.6px;stroke:url(#Dégradé_sans_nom_26);}.cls-1,.cls-2,.cls-3{stroke-miterlimit:10;}.cls-2{fill:url(#Dégradé_sans_nom_26-2);stroke:url(#Dégradé_sans_nom_26-3);}.cls-3{fill:url(#Dégradé_sans_nom_26-4);stroke:url(#Dégradé_sans_nom_26-5);}</style><linearGradient id="Dégradé_sans_nom_26" x1="74.8" y1="172.74" x2="74.8" gradientUnits="userSpaceOnUse"><stop offset="0" stop-color="#d158ff"/><stop offset="1" stop-color="#7d58ff"/></linearGradient><linearGradient id="Dégradé_sans_nom_26-2" x1="50.78" y1="117.67" x2="50.78" y2="53.69" xlink:href="#Dégradé_sans_nom_26"/><linearGradient id="Dégradé_sans_nom_26-3" x1="50.78" y1="118.17" x2="50.78" y2="53.19" xlink:href="#Dégradé_sans_nom_26"/><linearGradient id="Dégradé_sans_nom_26-4" x1="104.38" y1="118.55" x2="104.38" y2="69.24" xlink:href="#Dégradé_sans_nom_26"/><linearGradient id="Dégradé_sans_nom_26-5" x1="104.38" y1="119.05" x2="104.38" y2="68.74" xlink:href="#Dégradé_sans_nom_26"/></defs><title>hyperscale-pictogram-color</title><g id="Calque_2" data-name="Calque 2"><g id="hyperscale-pictogram"><g id="hyperscale-pictogram-color"><polygon class="cls-1" points="147.3 128.23 147.3 44.51 74.8 2.66 2.3 44.51 2.3 128.23 74.8 170.09 147.3 128.23"/><path class="cls-2" d="M71.22,117.67V85.94H30.35v31.73H28v-64h2.37V83.57H71.22V53.69h2.37v64Z"/><path class="cls-3" d="M119.25,106a10,10,0,0,0-2.86-6.5q-2.86-3.3-11.65-5.23-8-1.71-12-4.46t-4.06-8.59a10.67,10.67,0,0,1,4.24-8.48q4.24-3.52,11.67-3.52,8,0,12.48,3.76a12.16,12.16,0,0,1,4.53,9.82h-2.42A10.26,10.26,0,0,0,115.41,75q-3.76-3.38-10.83-3.38T94.2,74.72Q91,77.81,91,81.15a8.76,8.76,0,0,0,2.57,6.31q2.57,2.66,11.84,4.77,8.48,1.93,12.33,5.08a10.69,10.69,0,0,1,3.85,8.77,10.88,10.88,0,0,1-4.5,9q-4.51,3.49-12.19,3.49-8.66,0-13.23-3.87a11.6,11.6,0,0,1-4.57-9.1H89.5q.44,6.11,5.34,8.35a24,24,0,0,0,10.09,2.24q7,0,10.68-3.21T119.25,106Z"/></g></g></g></svg>