<svg xmlns="http://www.w3.org/2000/svg" viewBox="0 0 149.6 172.74"><defs><style>.cls-1{fill:none;stroke-width:4.6px;}.cls-1,.cls-2{stroke:#fff;stroke-miterlimit:10;}.cls-2{fill:#fff;}</style></defs><title>hyperscale-pictogram-white</title><g id="Calque_2" data-name="Calque 2"><g id="hyperscale-pictogram"><g id="hyperscale-pictogram-white"><polygon class="cls-1" points="147.3 128.23 147.3 44.51 74.8 2.66 2.3 44.51 2.3 128.23 74.8 170.09 147.3 128.23"/><path class="cls-2" d="M71.22,117.67V85.94H30.35v31.73H28v-64h2.37V83.57H71.22V53.69h2.37v64Z"/><path class="cls-2" d="M119.25,106a10,10,0,0,0-2.86-6.5q-2.86-3.3-11.65-5.23-8-1.71-12-4.46t-4.06-8.59a10.67,10.67,0,0,1,4.24-8.48q4.24-3.52,11.67-3.52,8,0,12.48,3.76a12.16,12.16,0,0,1,4.53,9.82h-2.42A10.26,10.26,0,0,0,115.41,75q-3.76-3.38-10.83-3.38T94.2,74.72Q91,77.81,91,81.15a8.76,8.76,0,0,0,2.57,6.31q2.57,2.66,11.84,4.77,8.48,1.93,12.33,5.08a10.69,10.69,0,0,1,3.85,8.77,10.88,10.88,0,0,1-4.5,9q-4.51,3.49-12.19,3.49-8.66,0-13.23-3.87a11.6,11.6,0,0,1-4.57-9.1H89.5q.44,6.11,5.34,8.35a24,24,0,0,0,10.09,2.24q7,0,10.68-3.21T119.25,106Z"/></g></g></g></svg>